<svg version="1.1" id="Layer_1" xmlns="http://www.w3.org/2000/svg" xmlns:xlink="http://www.w3.org/1999/xlink" x="0px" y="0px" viewBox="0 -46 129 129" style="enable-background:new 0 0 240 37.5;" xml:space="preserve" width="100%" height="100%"  preserveAspectRatio="xMidYMid meet"><rect id="svgEditorBackground" x="0" y="0" width="200" height="37.5" style="fill:none;stroke:none;"/>
<style type="text/css">
	.st0{fill:#91B1B6;}
	.st1{fill:#72BF44;}
</style>
<path class="st0" d="M60.3,30.1c0-4.1-3.3-7.4-7.4-7.4c-4.1,0-7.4,3.3-7.4,7.4c0,4.1,3.3,7.4,7.4,7.4C56.9,37.5,60.3,34.2,60.3,30.1  "/>
<path class="st0" d="M30.1,0c-4.1,0-7.1,3-7.8,7.8c-0.7,4.4-1.2,6.4-4.6,9.8c-3.4,3.4-5.4,4-9.8,4.6C3,23.1,0,26,0,30.1  c0,2,0.8,3.9,2.2,5.2c1.3,1.3,3.2,2.2,5.2,2.2c4.1,0,7.1-3,7.8-7.8c0.7-4.4,1.2-6.4,4.6-9.8c3.4-3.4,5.4-4,9.8-4.6  c4.8-0.8,7.8-3.8,7.8-7.8c0-2-0.8-3.9-2.2-5.2C34,0.8,32.2,0,30.1,0"/>
<path class="st0" d="M52.9,0c-4.1,0-7.1,3-7.8,7.8c-0.7,4.4-1.2,6.4-4.6,9.8c-3.4,3.4-5.4,4-9.8,4.6c-4.8,0.8-7.8,3.8-7.8,7.8  c0,2,0.8,3.9,2.2,5.2c1.3,1.3,3.2,2.2,5.2,2.2c4.1,0,7.1-3,7.8-7.8c0.7-4.4,1.2-6.4,4.6-9.8c3.4-3.4,5.4-4,9.8-4.6  c4.8-0.8,7.8-3.8,7.8-7.8c0-2-0.8-3.9-2.2-5.2C56.8,0.8,54.9,0,52.9,0"/>
<path class="st1" d="M83.1,7.4c0-4.1-3.3-7.4-7.4-7.4c-4.1,0-7.4,3.3-7.4,7.4c0,4.1,3.3,7.4,7.4,7.4C79.8,14.8,83.1,11.5,83.1,7.4"/>
<path class="st1" d="M98.5,0c-4.1,0-7.1,3-7.8,7.8c-0.7,4.4-1.2,6.4-4.6,9.8c-3.4,3.4-5.4,4-9.8,4.6c-4.8,0.8-7.8,3.8-7.8,7.8  c0,2,0.8,3.9,2.2,5.2c1.3,1.3,3.2,2.2,5.2,2.2c4.1,0,7.1-3,7.8-7.8c0.7-4.4,1.2-6.4,4.6-9.8c3.4-3.4,5.4-4,9.8-4.6  c4.8-0.8,7.8-3.8,7.8-7.8c0-2-0.8-3.9-2.2-5.2C102.4,0.8,100.5,0,98.5,0"/>
<path class="st1" d="M121.2,0c-4.1,0-7.1,3-7.8,7.8c-0.7,4.4-1.2,6.4-4.7,9.8c-3.4,3.4-5.4,4-9.8,4.6c-4.8,0.8-7.8,3.8-7.8,7.8  c0,2,0.8,3.9,2.2,5.2c1.3,1.3,3.2,2.2,5.2,2.2c4.1,0,7.1-3,7.8-7.8c0.7-4.4,1.2-6.4,4.6-9.8c3.4-3.4,5.4-4,9.8-4.6  c4.8-0.8,7.8-3.8,7.8-7.8c0-2-0.8-3.9-2.2-5.2C125.1,0.8,123.3,0,121.2,0"/>

</svg>