<!DOCTYPE svg PUBLIC "-//W3C//DTD SVG 20010904//EN" "http://www.w3.org/TR/2001/REC-SVG-20010904/DTD/svg10.dtd">
<svg version="1.0" xmlns="http://www.w3.org/2000/svg" width="400px" height="400px" viewBox="0 0 4000 4000" preserveAspectRatio="xMidYMid meet">
<g id="layer101" fill="#51a9e5" stroke="none">
 <path d="M0 2000 l0 -2000 2000 0 2000 0 0 2000 0 2000 -2000 0 -2000 0 0 -2000z"/>
 </g>
<g id="layer102" fill="#ffffff" stroke="none">
 <path d="M0 2000 l0 -2000 2000 0 2000 0 0 2000 0 2000 -2000 0 -2000 0 0 -2000z m2158 1590 c243 -26 461 -99 677 -228 196 -117 410 -330 527 -527 250 -418 303 -895 151 -1345 -80 -237 -198 -428 -376 -609 -432 -439 -1065 -591 -1647 -394 -352 119 -669 371 -852 678 -250 418 -303 895 -151 1345 119 352 371 669 678 852 310 185 653 264 993 228z"/>
 <path d="M1789 3204 c-590 -106 -1009 -606 -1009 -1204 0 -680 540 -1220 1220 -1220 680 0 1220 540 1220 1220 0 300 -106 587 -296 801 -196 220 -435 354 -721 404 -105 18 -311 18 -414 -1z m-264 -659 c22 -13 137 -121 256 -242 313 -318 313 -288 0 -606 -119 -121 -235 -230 -259 -244 -142 -84 -315 48 -272 208 10 37 36 68 158 192 l146 147 -146 148 c-122 123 -148 154 -158 191 -28 106 34 206 145 231 41 10 83 2 130 -25z m1135 -5 c50 -26 88 -82 96 -143 9 -61 -28 -141 -82 -177 -37 -25 -40 -25 -276 -28 -217 -3 -242 -1 -282 16 -110 49 -143 198 -63 289 52 60 66 62 330 63 219 0 241 -2 277 -20z"/>
 </g>

</svg>