<?xml version="1.0" encoding="utf-8"?>
<!DOCTYPE svg PUBLIC "-//W3C//DTD SVG 1.1//EN" "http://www.w3.org/Graphics/SVG/1.1/DTD/svg11.dtd">
<svg width="30" height="30" xmlns="http://www.w3.org/2000/svg" xmlns:xlink="http://www.w3.org/1999/xlink">
  <g id="svg_1" fill-rule="evenodd">
   <path id="Fill-10" d="m4.531328,13.354375l1.95,1.89l6.14,5.74l2.65,-2.559999c0.24,-0.33 0.23,-0.780001 -0.05,-1.1l-2.42,-2.12l0.01,0l-2.61,-2.530001c-0.3,-0.349999 -0.3,-0.87 0.03,-1.2l7.010001,-6.78l-3.180001,-3.09l-9.52,9.19c-0.73,0.71 -0.73,1.86 -0.01,2.559999"/>
   <path id="Fill-11" d="m25.461329,16.634375l-1.940001,-1.879999l-6.15,-5.74l-2.650001,2.549999c-0.24,0.34 -0.219999,0.79 0.05,1.11l2.42,2.120001l0,0l2.6,2.53c0.309999,0.35 0.299999,0.860001 -0.02,1.200001l-7.02,6.779999l3.19,3.09l7.57,-7.309999l1.950001,-1.890001c0.73,-0.699999 0.73,-1.849998 0,-2.559999"/>
  </g>
</svg>