<!DOCTYPE svg PUBLIC "-//W3C//DTD SVG 20010904//EN" "http://www.w3.org/TR/2001/REC-SVG-20010904/DTD/svg10.dtd">
<svg version="1.0" xmlns="http://www.w3.org/2000/svg" width="131px" height="142px" viewBox="0 0 1310 1420" preserveAspectRatio="xMidYMid meet">
<g id="layer101" fill="#1f8dd6" stroke="none">
 <path d="M0 710 l0 -710 655 0 655 0 0 710 0 710 -655 0 -655 0 0 -710z"/>
 </g>
<g id="layer102" fill="#a0c8e6" stroke="none">
 <path d="M826 1327 c-11 -8 -20 -31 -23 -59 -5 -40 -2 -50 20 -72 30 -30 62 -33 95 -10 22 15 30 44 12 44 -5 0 -10 -4 -10 -10 0 -19 -41 -33 -65 -22 -40 18 -40 103 0 118 23 9 65 -5 65 -21 0 -8 7 -15 15 -15 15 0 11 23 -8 48 -12 16 -78 16 -101 -1z"/>
 <path d="M972 1328 c-14 -14 -16 -38 -3 -38 5 0 11 7 15 15 7 20 72 20 79 1 7 -19 -9 -32 -52 -43 -63 -16 -67 -66 -8 -87 33 -12 77 9 77 36 0 24 -8 23 -29 -3 -12 -16 -23 -20 -39 -15 -39 13 -26 41 26 57 36 11 48 19 50 37 2 13 -2 30 -8 38 -15 17 -91 19 -108 2z"/>
 <path d="M1122 1328 c-14 -14 -16 -38 -3 -38 5 0 11 7 15 15 7 20 72 20 79 1 7 -19 -9 -32 -52 -43 -63 -16 -67 -66 -8 -87 33 -12 77 9 77 36 0 24 -8 23 -29 -3 -12 -16 -23 -20 -39 -15 -39 13 -26 41 26 57 36 11 48 19 50 37 2 13 -2 30 -8 38 -15 17 -91 19 -108 2z"/>
 <path d="M450 654 l0 -295 169 3 c185 3 197 7 245 71 31 42 30 160 -2 205 -39 53 -73 65 -212 71 l-125 6 -3 118 -3 117 -34 0 -35 0 0 -296z m303 -25 c29 -13 57 -58 57 -94 0 -35 -25 -82 -53 -96 -35 -19 -217 -25 -228 -8 -5 8 -9 58 -9 112 l0 97 105 0 c57 0 115 -5 128 -11z"/>
 </g>
<g id="layer103" fill="#d4e6f3" stroke="none">
 <path d="M821 1314 c-48 -61 -10 -138 64 -132 22 2 42 10 49 20 17 27 -2 33 -23 7 -16 -20 -23 -22 -47 -14 -49 18 -58 102 -13 126 25 13 69 -5 69 -28 0 -7 5 -13 10 -13 16 0 11 26 -8 43 -29 26 -77 22 -101 -9z"/>
 <path d="M975 1320 c-25 -27 -12 -37 14 -11 25 25 44 27 66 5 23 -24 15 -36 -39 -51 -45 -13 -47 -16 -44 -46 3 -27 8 -33 32 -35 41 -5 76 6 76 23 0 20 -10 19 -25 -2 -11 -14 -18 -16 -42 -8 -39 14 -35 37 8 50 42 12 69 32 69 51 0 43 -82 60 -115 24z"/>
 <path d="M1125 1320 c-25 -27 -12 -37 14 -11 25 25 44 27 66 5 23 -24 15 -36 -39 -51 -45 -13 -47 -16 -44 -46 3 -27 8 -33 32 -35 41 -5 76 6 76 23 0 20 -10 19 -25 -2 -11 -14 -18 -16 -42 -8 -39 14 -35 37 8 50 42 12 69 32 69 51 0 43 -82 60 -115 24z"/>
 <path d="M450 654 l0 -295 169 3 c154 3 172 5 198 24 50 37 68 81 66 156 -3 125 -51 159 -238 168 l-120 5 -3 118 -3 117 -34 0 -35 0 0 -296z m311 -29 c49 -26 65 -101 33 -151 -29 -43 -64 -54 -174 -54 l-100 0 0 110 0 110 105 0 c76 0 114 -4 136 -15z"/>
 </g>
<g id="layer104" fill="#fefeff" stroke="none">
 <path d="M823 1314 c-21 -21 -24 -32 -20 -61 9 -50 33 -73 78 -73 28 0 41 5 49 20 7 14 7 20 0 20 -5 0 -10 -4 -10 -10 0 -19 -49 -23 -75 -6 -51 34 -22 133 37 124 13 -2 27 -13 33 -25 11 -26 25 -30 25 -9 0 20 -39 46 -68 46 -12 0 -34 -12 -49 -26z"/>
 <path d="M979 1319 c-11 -11 -18 -23 -15 -27 4 -3 13 4 22 16 25 36 90 25 82 -14 -2 -11 -20 -24 -48 -34 -47 -16 -61 -40 -40 -65 19 -23 77 -19 90 5 6 11 7 20 1 20 -5 0 -12 -7 -15 -16 -9 -24 -71 -15 -71 11 0 14 11 22 39 30 22 6 46 21 53 32 13 19 12 24 -6 42 -27 27 -65 27 -92 0z"/>
 <path d="M1129 1319 c-11 -11 -18 -23 -15 -27 4 -3 13 4 22 16 25 36 90 25 82 -14 -2 -11 -20 -24 -48 -34 -47 -16 -61 -40 -40 -65 19 -23 77 -19 90 5 6 11 7 20 1 20 -5 0 -12 -7 -15 -16 -9 -24 -71 -15 -71 11 0 14 11 22 39 30 22 6 46 21 53 32 13 19 12 24 -6 42 -27 27 -65 27 -92 0z"/>
 <path d="M450 654 l0 -296 169 3 c152 4 172 6 198 25 70 51 90 181 38 250 -45 60 -75 69 -212 69 l-123 0 0 123 0 122 -35 0 -35 0 0 -296z m311 -29 c34 -18 49 -50 49 -101 0 -80 -45 -104 -191 -104 l-99 0 0 110 0 110 105 0 c76 0 114 -4 136 -15z"/>
 </g>

</svg>