<!DOCTYPE svg PUBLIC "-//W3C//DTD SVG 20010904//EN" "http://www.w3.org/TR/2001/REC-SVG-20010904/DTD/svg10.dtd">
<svg version="1.0" xmlns="http://www.w3.org/2000/svg" width="1600px" height="311px" viewBox="0 0 16000 3110" preserveAspectRatio="xMidYMid meet">
<g id="layer101" fill="#4767aa" stroke="none">
 <path d="M2169 3095 c-244 -50 -439 -218 -539 -463 -64 -156 -90 -323 -90 -567 0 -192 12 -309 45 -433 83 -313 277 -519 560 -593 108 -29 320 -31 414 -5 144 39 282 136 342 240 l29 51 0 -132 0 -133 300 0 300 0 0 1005 0 1005 -297 -2 -298 -3 -5 -125 -5 -125 -22 40 c-26 48 -111 132 -170 169 -24 14 -78 38 -120 53 -68 23 -96 27 -228 29 -100 2 -172 -1 -216 -11z m526 -509 c71 -32 116 -75 153 -144 53 -100 62 -153 62 -377 0 -225 -11 -291 -62 -387 -17 -33 -49 -74 -70 -92 -79 -68 -248 -91 -376 -52 -122 37 -202 145 -222 296 -12 93 -12 372 -1 462 21 164 123 281 271 315 75 17 182 8 245 -21z"/>
 <path d="M4508 3095 c-387 -61 -646 -292 -737 -657 -65 -261 -46 -661 40 -878 76 -188 213 -341 389 -430 288 -147 791 -157 1083 -23 51 24 77 42 77 53 0 23 -123 414 -135 428 -1 1 -36 -8 -76 -22 -187 -63 -404 -73 -539 -25 -79 27 -158 98 -195 173 -45 94 -55 156 -55 351 0 249 21 325 121 431 128 135 374 163 629 73 47 -17 92 -33 101 -35 12 -4 28 36 82 208 37 117 67 220 67 229 0 18 -100 67 -190 94 -152 44 -474 59 -662 30z"/>
 <path d="M6195 3099 c-322 -49 -548 -200 -665 -444 -86 -178 -118 -382 -106 -690 7 -195 28 -313 76 -429 110 -265 325 -434 626 -495 319 -64 641 -19 846 120 164 112 263 269 309 490 18 87 23 149 27 372 l4 267 -631 0 -631 0 0 29 c0 47 38 155 69 199 78 107 251 152 507 132 158 -13 294 -40 428 -85 55 -18 102 -33 103 -31 1 1 27 97 57 213 50 197 53 213 37 227 -26 24 -214 83 -341 107 -97 18 -157 22 -385 25 -148 1 -297 -2 -330 -7z m553 -1316 c-12 -193 -91 -293 -259 -323 -182 -33 -353 48 -408 194 -12 33 -25 94 -29 137 l-8 79 354 0 355 0 -5 -87z"/>
 <path d="M8530 3095 c-142 -32 -292 -130 -366 -239 l-34 -51 0 133 0 132 -290 0 -290 0 0 -1510 c0 -885 4 -1510 9 -1510 5 0 107 -9 227 -19 121 -11 255 -21 299 -23 l80 -3 5 643 c5 616 6 642 22 614 53 -89 211 -193 348 -229 91 -23 280 -23 385 1 150 34 317 130 397 228 99 122 169 286 205 479 24 132 24 505 0 636 -36 196 -105 367 -191 472 -89 108 -231 199 -371 237 -85 23 -348 28 -435 9z m164 -505 c37 -14 69 -37 104 -74 103 -108 126 -190 126 -446 1 -254 -25 -356 -115 -454 -70 -76 -130 -99 -264 -100 -122 0 -192 23 -255 86 -96 96 -120 189 -120 463 0 216 9 273 54 363 83 164 282 232 470 162z"/>
 <path d="M10516 3100 c-347 -55 -596 -248 -712 -555 -47 -127 -65 -227 -71 -416 -9 -281 19 -445 107 -623 86 -173 199 -290 371 -380 285 -151 751 -151 1049 -1 124 62 238 163 313 275 45 68 110 229 132 330 26 116 32 456 11 591 -21 129 -75 293 -126 379 -109 184 -293 315 -526 376 -87 23 -123 27 -294 30 -107 1 -222 -1 -254 -6z m357 -506 c103 -35 193 -154 223 -293 22 -105 19 -398 -5 -494 -53 -205 -153 -289 -346 -291 -171 -2 -277 56 -337 184 -46 99 -53 149 -52 375 0 234 10 285 74 385 88 138 271 193 443 134z"/>
 <path d="M12720 3103 c-76 -8 -209 -47 -288 -84 -270 -125 -442 -358 -497 -673 -23 -133 -21 -456 4 -583 37 -193 109 -337 233 -467 130 -137 290 -222 495 -262 134 -27 386 -24 523 5 389 83 620 315 701 706 11 49 22 158 25 240 10 236 -16 413 -87 600 -103 269 -353 458 -674 510 -83 14 -340 18 -435 8z m367 -523 c95 -47 166 -145 195 -272 20 -83 17 -427 -5 -505 -54 -202 -163 -288 -362 -288 -196 1 -313 96 -360 296 -18 78 -21 411 -4 491 45 210 193 326 399 313 57 -4 90 -12 137 -35z"/>
 <path d="M400 2320 l0 -750 -200 0 -200 0 0 -255 0 -255 199 0 199 0 5 -257 c4 -222 7 -269 26 -338 62 -233 196 -370 426 -437 75 -22 97 -23 360 -23 154 0 288 3 298 7 15 7 17 28 17 247 l0 239 -177 4 c-165 3 -182 5 -228 28 -37 19 -56 37 -75 70 -24 43 -25 53 -28 253 l-3 207 251 0 252 0 -6 27 c-3 16 -15 130 -27 256 l-22 227 -224 0 -223 0 0 750 0 750 -310 0 -310 0 0 -750z"/>
 <path d="M14130 1560 c0 -885 4 -1510 9 -1510 5 0 107 -9 227 -19 121 -11 255 -21 299 -23 l80 -3 3 984 2 985 103 -165 c57 -90 126 -198 153 -239 65 -98 254 -402 285 -460 l24 -45 325 -3 c179 -1 330 0 337 3 12 4 -150 273 -271 450 -22 33 -109 167 -192 299 l-152 238 82 127 c45 69 139 212 207 316 218 332 349 541 349 558 0 16 -26 17 -325 17 l-326 0 -37 -61 c-67 -111 -393 -622 -475 -747 l-82 -124 -3 466 -2 466 -310 0 -310 0 0 -1510z"/>
 </g>

</svg>