<!DOCTYPE svg PUBLIC "-//W3C//DTD SVG 20010904//EN" "http://www.w3.org/TR/2001/REC-SVG-20010904/DTD/svg10.dtd">
<svg version="1.0" xmlns="http://www.w3.org/2000/svg" width="482px" height="150px" viewBox="0 0 4820 1500" preserveAspectRatio="xMidYMid meet">
<g id="layer101" fill="#343433" stroke="none">
 <path d="M388 1277 l-297 -172 0 -355 0 -355 296 -170 c163 -93 304 -170 313 -170 8 0 149 77 312 170 l297 170 0 355 0 355 -296 170 c-163 94 -304 171 -312 172 -9 1 -150 -76 -313 -170z"/>
 <path d="M1850 988 c-64 -33 -85 -67 -85 -138 0 -64 16 -95 69 -134 21 -17 42 -21 96 -21 74 0 103 14 144 69 29 39 29 133 0 173 -26 36 -99 73 -144 73 -20 0 -56 -10 -80 -22z m120 -88 c39 -39 12 -120 -40 -120 -29 0 -60 36 -60 70 0 34 31 70 60 70 11 0 29 -9 40 -20z"/>
 <path d="M2204 991 c-43 -26 -54 -66 -54 -187 l0 -104 50 0 50 0 0 86 c0 99 10 124 48 124 45 0 52 -16 52 -117 l0 -93 55 0 55 0 0 150 0 150 -55 0 c-31 0 -55 -4 -55 -10 0 -6 -13 -4 -30 5 -39 20 -78 19 -116 -4z"/>
 <path d="M2949 987 c-127 -84 -68 -312 77 -295 21 3 47 8 57 12 16 8 17 -1 17 -103 l0 -111 55 0 55 0 0 255 0 255 -55 0 c-30 0 -55 -4 -55 -9 0 -6 -12 -3 -27 5 -40 20 -85 17 -124 -9z m149 -110 c28 -56 -32 -116 -83 -83 -22 15 -26 23 -23 59 2 32 8 44 27 53 31 16 63 4 79 -29z"/>
 <path d="M3304 996 c-36 -16 -44 -32 -44 -91 0 -63 31 -85 117 -85 56 0 64 -2 61 -17 -4 -23 -41 -28 -80 -12 -27 11 -32 10 -55 -14 -16 -16 -23 -31 -20 -42 11 -28 75 -48 140 -43 49 4 63 9 90 36 32 32 32 32 35 152 l4 120 -51 0 c-28 0 -51 -5 -51 -10 0 -6 -13 -4 -30 5 -35 18 -75 19 -116 1z m137 -98 c10 -18 7 -19 -33 -16 -30 2 -44 8 -46 20 -6 32 61 29 79 -4z"/>
 <path d="M3669 981 c-28 -28 -29 -34 -29 -115 0 -85 0 -86 -25 -86 -22 0 -25 -4 -25 -40 0 -36 3 -40 25 -40 24 0 25 -3 25 -55 l0 -55 50 0 50 0 0 55 0 55 35 0 c34 0 35 1 35 40 0 39 -1 40 -35 40 l-36 0 3 68 c3 66 3 67 30 64 21 -2 30 4 43 27 20 40 19 46 -10 59 -48 22 -104 15 -136 -17z"/>
 <path d="M4120 988 c-92 -47 -116 -167 -49 -243 37 -42 86 -59 151 -53 90 9 143 68 143 158 0 92 -52 147 -146 156 -44 4 -63 1 -99 -18z m120 -88 c28 -28 27 -84 -2 -104 -30 -21 -54 -20 -78 4 -39 39 -12 120 40 120 11 0 29 -9 40 -20z"/>
 <path d="M1420 760 l0 -240 155 0 155 0 0 45 0 45 -105 0 -105 0 0 60 0 60 95 0 95 0 0 45 0 45 -95 0 -95 0 0 90 0 90 -50 0 -50 0 0 -240z"/>
 <path d="M2520 850 l0 -150 50 0 c28 0 50 5 50 10 0 6 13 4 30 -5 35 -18 80 -19 115 -3 45 20 59 61 63 186 l4 112 -56 0 -56 0 0 -89 c0 -108 -4 -121 -39 -121 -50 0 -56 12 -59 115 l-4 95 -49 0 -49 0 0 -150z"/>
 <path d="M3870 850 l0 -150 55 0 55 0 0 150 0 150 -55 0 -55 0 0 -150z"/>
 <path d="M4420 850 l0 -150 55 0 c32 0 55 4 55 11 0 5 10 3 22 -5 29 -21 97 -20 127 0 38 27 51 74 51 189 l0 105 -50 0 -50 0 0 -86 c0 -99 -10 -124 -48 -124 -45 0 -52 16 -52 117 l0 93 -55 0 -55 0 0 -150z"/>
 <path d="M3900 653 c-41 -15 -54 -78 -22 -106 42 -38 112 -10 112 44 0 46 -47 78 -90 62z"/>
 </g>
<g id="layer102" fill="#016baf" stroke="none">
 <path d="M90 748 l1 -353 296 -170 c163 -93 304 -170 313 -170 8 0 149 77 312 170 l297 170 1 353 0 352 -610 0 -610 0 0 -352z"/>
 </g>
<g id="layer103" fill="#fefeff" stroke="none">
 <path d="M605 991 c-39 -10 -66 -27 -89 -58 -19 -26 -19 -26 5 -44 40 -31 59 -33 76 -9 11 16 23 20 51 18 l37 -3 3 -192 2 -193 56 0 56 0 -4 193 c-3 159 -6 198 -21 224 -28 52 -106 81 -172 64z"/>
 <path d="M975 991 c-48 -12 -94 -39 -111 -66 -18 -28 -13 -40 27 -61 29 -14 31 -14 60 11 36 29 98 34 123 9 34 -33 16 -55 -86 -103 -96 -45 -129 -102 -108 -181 19 -71 101 -110 185 -89 43 11 101 61 91 77 -2 4 -21 16 -40 26 -33 17 -38 18 -49 4 -21 -28 -54 -31 -77 -8 -19 19 -20 24 -8 41 7 11 46 37 87 57 85 42 111 72 118 133 8 84 -45 141 -142 153 -22 3 -53 1 -70 -3z"/>
 </g>

</svg>