<?xml version="1.0" encoding="UTF-8" standalone="no"?>
<svg width="961px" height="156px" viewBox="0 0 961 156" version="1.1" xmlns="http://www.w3.org/2000/svg" xmlns:xlink="http://www.w3.org/1999/xlink">
    <!-- Generator: Sketch 41.1 (35376) - http://www.bohemiancoding.com/sketch -->
    <title>NatWest_200x200</title>
    <desc>Created with Sketch.</desc>
    <defs></defs>
    <g id="Page-1" stroke="none" stroke-width="1" fill="none" fill-rule="evenodd">
        <g id="NatWest_200x200">
            <g id="Layer_1">
                <g id="Group">
                    <path d="M406.584916,35.9297068 C393.785165,35.9297068 381.386112,38.1290161 372.570764,41.9494658 L371.628278,42.3575851 L371.628278,65.6147143 L373.874442,64.5377329 C379.839758,61.6638932 393.937543,58.9487665 402.888339,58.9487665 C425.011365,58.9487665 426.010287,67.4399143 426.049792,78.4704708 L402.391699,78.4704708 C371.035696,78.4704708 356.757315,98.2019031 356.757315,116.53326 C356.757315,142.01804 376.995369,155.349935 396.990746,155.349935 C410.60318,155.349935 419.226645,150.152083 426.196527,143.973611 C426.196527,144.523439 426.173952,152.923893 426.173952,152.923893 L451.158298,152.923893 L451.158298,75.4322497 C451.163941,39.7841665 419.988535,35.9297068 406.584916,35.9297068 L406.584916,35.9297068 Z M426.066723,119.452446 C423.160254,123.017821 414.085299,132.500925 399.987513,132.500925 C389.179964,132.500925 382.204438,126.23176 382.204438,116.53326 C382.204438,106.591021 390.082944,100.88302 403.825181,100.88302 L426.066723,100.88302 L426.066723,119.452446 L426.066723,119.452446 Z M253.761085,152.923893 L253.766729,47.3967242 L319.44164,152.923893 L343.472212,152.923893 L343.472212,1.53432298 L318.86599,1.53432298 L318.86599,107.690676 L253.727224,1.53432298 L229.109714,1.53432298 L229.109714,152.923893 L253.761085,152.923893 Z M932.909759,38.3104025 L932.909759,0.525361491 L907.710955,9.37361366 L907.710955,38.3104025 L891.587107,38.3104025 L891.587107,43.3212 C891.564532,50.5086335 891.553245,58.2628994 891.587107,59.3342124 L891.632256,60.8646596 L907.716599,60.8646596 L907.716599,125.001734 C907.716599,153.156294 929.043873,155.349935 935.573552,155.349935 C945.054848,155.349935 951.426505,154.635727 959.08491,152.725502 L960.275716,152.425081 L960.275716,129.836814 L958.238366,130.465998 C956.308245,131.072508 952.27305,132.092806 947.018831,132.109811 C937.881796,132.092806 932.921046,130.08622 932.921046,119.543139 L932.921046,60.8646596 L960.281359,60.8646596 C960.281359,60.8646596 960.303934,38.8432248 960.281359,38.3104025 L932.909759,38.3104025 Z M862.420832,87.1940199 L859.147527,85.7769391 C856.21284,84.5015665 852.719434,82.9937925 848.204531,80.9815379 L846.957289,80.4260422 C840.783158,77.6995789 833.113467,74.3099217 833.113467,67.7743453 C833.113467,59.1584944 845.281131,58.4953006 849.017213,58.4953006 C859.006437,58.4953006 868.053174,60.7909714 878.381015,65.9491453 L880.649754,67.0828099 L880.649754,42.9074124 L879.769348,42.4709516 C874.633645,39.9258745 861.416266,36.3491627 848.114233,36.3491627 C815.804456,36.3491627 807.276933,57.4863391 807.276933,68.6699404 C807.276933,89.5633789 822.785625,96.6317776 829.399959,99.6473255 C836.375484,102.849928 840.568701,104.675128 845.416578,106.795081 L849.299395,108.495578 C859.266044,112.888528 863.295595,114.957466 863.295595,121.70277 C863.295595,128.907209 856.72641,133.039416 845.252913,133.039416 C832.786136,133.039416 819.602619,128.323371 811.413713,123.90208 L809.099825,122.64938 L809.099825,147.238565 L809.991518,147.675026 C819.834008,152.481764 833.627037,155.46897 845.969654,155.46897 C874.328889,155.46897 889.16599,138.12957 889.16599,120.999898 C889.160346,104.845178 881.908283,95.6851677 862.420832,87.1940199 L862.420832,87.1940199 Z M748.210712,36.2924795 C729.011086,36.2924795 696.51507,48.8988298 696.51507,96.1159602 C696.51507,152.493101 741.071521,155.349935 749.999742,155.349935 C768.917186,155.349935 777.433423,151.353768 785.667477,147.487971 L786.570458,147.068516 L786.570458,123.046163 L784.177559,124.525595 C778.150164,128.244015 766.450921,132.591619 753.346414,132.591619 C726.889081,132.591619 723.175573,113.540385 722.791806,105.502703 L795.651057,105.502703 L795.837297,104.153642 C798.072174,88.424046 795.859871,66.2665714 782.896456,51.2738571 C774.323783,41.3259503 762.664045,36.2924795 748.210712,36.2924795 L748.210712,36.2924795 Z M722.803094,83.7760211 C723.474686,72.9268509 731.082297,58.852405 747.053768,58.852405 C764.526443,58.852405 769.848385,74.3382634 770.378886,83.7760211 L722.803094,83.7760211 Z" id="Shape" fill="#44195E"></path>
                    <path d="M671.474288,1.53432298 C670.859132,4.89563851 652.889817,102.872601 652.647141,104.091291 C652.370603,102.895275 629.276873,11.0854472 626.878331,1.53432298 L602.328545,1.53432298 L576.830629,104.187652 L556.372474,1.53432298 L530.061875,1.53432298 L561.643623,152.923893 L586.898863,152.923893 L614.005213,47.4647441 L640.699579,152.923893 L666.372447,152.923893 L696.627942,1.53432298 L671.474288,1.53432298 Z" id="Shape" fill="#44195E"></path>
                    <path d="M499.727369,38.3047342 L499.727369,0.525361491 L474.528566,9.36794534 L474.528566,38.3047342 L458.404717,38.3047342 L458.399074,43.3155317 C458.382143,50.5086335 458.370856,58.2628994 458.404717,59.3342124 L458.449866,60.8646596 L474.528566,60.8646596 L474.528566,125.001734 C474.528566,153.156294 495.850196,155.349935 502.385518,155.349935 C511.866815,155.349935 518.227185,154.635727 525.88559,152.725502 L527.087683,152.425081 L527.087683,129.831145 L525.050333,130.465998 C523.108924,131.072508 519.085017,132.092806 513.819511,132.109811 C504.682475,132.092806 499.733013,130.08622 499.733013,119.543139 L499.733013,60.8646596 L527.093326,60.8646596 C527.093326,60.8646596 527.104614,38.8432248 527.082039,38.3104025 L499.727369,38.3104025 L499.727369,38.3047342 Z" id="Shape" fill="#44195E"></path>
                    <path d="M64.8236728,1.5399913 C62.8201845,1.5399913 60.9916487,2.59429938 60.0830244,4.26078634 L37.4182103,43.6329578 C37.2150396,44.0070671 37.2150396,44.5512261 37.4577157,44.987687 C37.7003917,45.4014745 38.1970311,45.7245689 38.6203033,45.7245689 L81.0096009,45.7359056 C84.734396,45.7359056 88.0697808,47.7594969 89.7967313,50.7637081 L111.073213,87.5567925 C111.33282,87.9535752 111.761735,88.2426596 112.269662,88.2426596 C112.777589,88.2426596 113.229079,88.0102584 113.499973,87.5964708 L136.147856,48.2016261 C137.056481,46.5294708 137.118561,44.4888745 136.119638,42.7486994 L114.160278,4.56120745 C113.127494,2.75301242 111.157867,1.53432298 108.877841,1.53432298 L64.8236728,1.5399913 Z" id="Shape" fill="#E30521"></path>
                    <path d="M23.7267663,150.118073 C24.7256886,151.858248 26.5485808,152.980576 28.3940475,152.929561 L73.6503086,152.923893 C74.1300171,152.906888 74.5984383,152.634809 74.8524016,152.204016 C75.089434,151.78456 75.1063649,151.274411 74.9031943,150.826614 L53.7226545,113.925831 C51.860257,110.689219 51.9392678,106.772407 53.6605746,103.768196 L74.7225981,66.8447404 C74.937056,66.4252845 74.9709178,65.9037988 74.7225981,65.4673379 C74.4686348,65.0195404 74.039719,64.7134509 73.5487233,64.7134509 L28.2811749,64.7021143 C26.3849155,64.7474609 24.5958851,65.7110758 23.5913192,67.4512509 L1.6658204,105.65008 C0.616105403,107.463943 0.554025484,109.782287 1.69403855,111.7662 L23.7267663,150.118073 Z" id="Shape" fill="#E30521"></path>
                    <path d="M172.554907,111.471447 C173.55383,109.725604 173.587691,107.588646 172.628274,106.001516 L150.008609,66.6123391 C149.754646,66.1985516 149.291868,65.926472 148.789585,65.9208037 C148.309877,65.926472 147.779376,66.1985516 147.576205,66.5613242 L126.367447,103.45077 C124.50505,106.693051 121.090654,108.693969 117.642397,108.693969 L75.3038919,108.710974 C74.8354707,108.739316 74.3670495,108.966048 74.1130862,109.413846 C73.8591229,109.850307 73.8365484,110.354788 74.0566499,110.796917 L96.676315,150.214435 C97.6639501,151.835575 99.385257,152.918225 101.388745,152.923893 L145.273605,152.923893 C147.356104,152.923893 149.382167,151.807234 150.527823,149.811984 L172.554907,111.471447 Z" id="Shape" fill="#E30521"></path>
                </g>
            </g>
        </g>
    </g>
</svg>