<?xml version="1.0" encoding="utf-8"?>
<!-- Generator: Adobe Illustrator 16.0.0, SVG Export Plug-In . SVG Version: 6.00 Build 0)  -->
<!DOCTYPE svg PUBLIC "-//W3C//DTD SVG 1.1//EN" "http://www.w3.org/Graphics/SVG/1.1/DTD/svg11.dtd">
<svg version="1.1"
	 id="svg6751" inkscape:version="0.47 r22583" sodipodi:docname="New document 2" xmlns:inkscape="http://www.inkscape.org/namespaces/inkscape" xmlns:svg="http://www.w3.org/2000/svg" xmlns:rdf="http://www.w3.org/1999/02/22-rdf-syntax-ns#" xmlns:sodipodi="http://sodipodi.sourceforge.net/DTD/sodipodi-0.dtd" xmlns:cc="http://creativecommons.org/ns#" xmlns:dc="http://purl.org/dc/elements/1.1/"
	 xmlns="http://www.w3.org/2000/svg" xmlns:xlink="http://www.w3.org/1999/xlink" x="0px" y="0px" width="299.859px"
	 height="128.19px" viewBox="0 0.001 299.859 128.19" enable-background="new 0 0.001 299.859 128.19" xml:space="preserve">
<defs>
	
	
		<inkscape:perspective  inkscape:persp3d-origin="372.04724 : 350.78739 : 1" id="perspective6759" inkscape:vp_z="744.09448 : 526.18109 : 1" inkscape:vp_x="0 : 526.18109 : 1" inkscape:vp_y="0 : 1000 : 0" sodipodi:type="inkscape:persp3d">
		</inkscape:perspective>
	
		<inkscape:perspective  inkscape:persp3d-origin="0.5 : 0.33333333 : 1" id="perspective6722" inkscape:vp_z="1 : 0.5 : 1" inkscape:vp_x="0 : 0.5 : 1" inkscape:vp_y="0 : 1000 : 0" sodipodi:type="inkscape:persp3d">
		</inkscape:perspective>
</defs>
<sodipodi:namedview  inkscape:zoom="1.979899" inkscape:window-y="-8" inkscape:pageshadow="2" inkscape:current-layer="layer1" inkscape:window-height="750" inkscape:window-x="-8" inkscape:pageopacity="0.0" inkscape:window-width="1280" inkscape:document-units="px" inkscape:window-maximized="1" inkscape:cy="121.95103" id="base" inkscape:cx="20.852001" borderopacity="1.0" showgrid="false" pagecolor="#ffffff" bordercolor="#666666">
	</sodipodi:namedview>
<g id="layer1" transform="translate(-225.80241,-401.79996)" inkscape:label="Layer 1" inkscape:groupmode="layer">
	<g id="g6688" transform="matrix(15.821478,0,0,-15.821478,-30932.605,5832.228)">
		<path id="path3383" fill="#003B7A" d="M1974.474,340.536h-0.889c-0.189,0-0.364,0.112-0.42,0.28
			c-0.161,0.469-0.623,0.637-0.623,0.637c-0.168,0.063-0.294,0.224-0.294,0.42v0.889c0,0.245,0.203,0.441,0.448,0.441
			c0.245,0,0.441-0.182,0.441-0.441l-0.01-0.714l1.029,1.029c0.175,0.175,0.455,0.175,0.63,0c0.175-0.175,0.175-0.462,0-0.637
			l-1.016-1.008h0.7c0.245,0,0.448-0.203,0.448-0.448c0-0.245-0.203-0.448-0.448-0.448H1974.474z M1974.464,339.458l-0.714,0.007
			l1.03-1.029c0.175-0.175,0.175-0.455,0-0.63c-0.175-0.175-0.455-0.175-0.63,0l-1.016,1.015v-0.7c0-0.266-0.203-0.448-0.448-0.448
			c-0.245,0-0.448,0.203-0.448,0.448v0.889c0,0.189,0.119,0.364,0.287,0.42c0.469,0.161,0.63,0.622,0.63,0.622
			c0.063,0.168,0.231,0.294,0.42,0.294h0.889c0.245,0,0.448-0.203,0.448-0.448C1974.912,339.655,1974.73,339.458,1974.464,339.458
			L1974.464,339.458z M1971.601,337.68c-0.245,0-0.441,0.161-0.434,0.441l0.01,0.714l-1.029-1.029c-0.175-0.175-0.462-0.175-0.63,0
			c-0.175,0.175-0.175,0.462,0,0.63l1.008,1.015h-0.693c-0.252,0-0.448,0.203-0.448,0.448c0,0.245,0.196,0.448,0.448,0.448h0.889
			c0.189,0,0.357-0.112,0.42-0.28c0.161-0.476,0.616-0.637,0.616-0.637c0.175-0.063,0.294-0.224,0.294-0.42v-0.889
			c0-0.245-0.196-0.441-0.448-0.441H1971.601z M1971.762,341.446c-0.469-0.168-0.63-0.623-0.63-0.623
			c-0.063-0.168-0.231-0.294-0.42-0.294h-0.889c-0.245,0-0.448,0.203-0.448,0.448c0,0.245,0.168,0.441,0.448,0.441l0.714-0.007
			l-1.029,1.029c-0.175,0.175-0.175,0.455,0,0.63c0.175,0.175,0.455,0.175,0.63,0l1.015-1.015v0.7c0,0.244,0.196,0.448,0.448,0.448
			c0.245,0,0.441-0.203,0.441-0.448v-0.89C1972.042,341.677,1971.93,341.503,1971.762,341.446"/>
		<path id="path3385" fill="#003B7A" d="M1986.228,337.645c-0.476,0-1.078,0.077-1.379,0.168l0.238,0.98
			c0.216-0.098,0.699-0.252,1.141-0.252c0.532,0,0.931,0.231,0.931,0.7c0,0.399-0.245,0.609-0.931,0.875
			c-0.7,0.273-1.281,0.609-1.281,1.604c0,0.973,0.77,1.512,1.939,1.512c0.497,0,1.001-0.098,1.302-0.196l-0.231-0.952
			c-0.203,0.112-0.595,0.252-1.071,0.252c-0.567,0-0.819-0.217-0.819-0.588c0-0.378,0.28-0.518,0.889-0.784
			c0.84-0.357,1.365-0.714,1.365-1.652C1988.321,338.275,1987.495,337.645,1986.228,337.645L1986.228,337.645z M1982.468,340.095
			h-0.644v-1.568h0.679c0.532,0,0.945,0.21,0.945,0.791C1983.448,339.85,1983.063,340.095,1982.468,340.095z M1982.478,342.328
			h-0.651v-1.421h0.602c0.455,0,0.847,0.245,0.847,0.735C1983.276,342.105,1982.996,342.328,1982.478,342.328L1982.478,342.328z
			 M1982.534,337.694h-1.764v5.467h1.855c1.064,0,1.764-0.518,1.764-1.428c0-0.644-0.427-1.008-0.833-1.169
			c0.56-0.147,1.015-0.532,1.015-1.253C1984.572,338.359,1983.836,337.694,1982.534,337.694L1982.534,337.694z M1978.068,342.322
			h-0.539v-1.562h0.42c0.567,0,0.98,0.245,0.98,0.777C1978.929,342.007,1978.628,342.322,1978.068,342.322L1978.068,342.322z
			 M1979.083,337.694c-0.329,0.665-0.924,1.715-1.274,2.261h-0.28v-2.261h-1.05v5.467h1.73c1.14,0,1.82-0.545,1.82-1.638
			c0-0.749-0.539-1.211-1.106-1.401c0.364-0.496,1.064-1.715,1.414-2.429H1979.083z"/>
		<path id="path3387" fill="#003B7A" d="M1970.164,336.551h-0.318l-0.192-0.998h-0.148l0.19,0.998h-0.319l0.024,0.129h0.787
			L1970.164,336.551L1970.164,336.551z"/>
		<path id="path3389" fill="#003B7A" d="M1970.805,335.554h-0.147l0.102,0.531c0.025,0.13,0,0.187-0.074,0.187
			c-0.154,0-0.324-0.326-0.362-0.531l-0.035-0.187h-0.147l0.232,1.219h0.147l-0.075-0.389c-0.012-0.065-0.031-0.145-0.093-0.327l0,0
			c0.078,0.176,0.211,0.344,0.384,0.344c0.154,0,0.205-0.109,0.174-0.282l-0.109-0.564H1970.805z"/>
		<path id="path3391" fill="#003B7A" d="M1971.52,336.285c-0.132,0-0.22-0.115-0.259-0.256c0.257,0.01,0.371,0.062,0.371,0.162
			C1971.632,336.252,1971.587,336.285,1971.52,336.285L1971.52,336.285z M1971.243,335.919c0-0.025-0.01-0.067-0.01-0.097
			c0-0.129,0.045-0.162,0.179-0.162c0.078,0,0.162,0.018,0.232,0.047v-0.117c-0.083-0.033-0.18-0.052-0.289-0.052
			c-0.191,0-0.279,0.082-0.279,0.269c0,0.322,0.181,0.591,0.454,0.591c0.177,0,0.244-0.09,0.244-0.189
			c0-0.179-0.182-0.277-0.538-0.291"/>
		<path id="path3393" fill="#003B7A" d="M1972.704,336.562c-0.05,0-0.089-0.002-0.119-0.003l-0.073-0.384
			c0.018-0.002,0.048-0.003,0.09-0.003c0.168,0,0.3,0.088,0.3,0.245C1972.903,336.516,1972.845,336.562,1972.704,336.562
			L1972.704,336.562z M1972.67,336.071c0.023-0.04,0.043-0.077,0.067-0.119l0.221-0.399h-0.181l-0.266,0.506h-0.022l-0.095-0.506
			h-0.149l0.214,1.126c0.077,0.005,0.157,0.007,0.269,0.007c0.23,0,0.333-0.092,0.333-0.247
			C1973.062,336.225,1972.876,336.095,1972.67,336.071"/>
		<path id="path3395" fill="#003B7A" d="M1973.564,336.272c-0.182,0-0.304-0.204-0.304-0.413c0-0.124,0.05-0.192,0.175-0.192
			c0.162,0,0.304,0.174,0.304,0.416C1973.739,336.205,1973.684,336.272,1973.564,336.272L1973.564,336.272z M1973.41,335.538
			c-0.209,0-0.304,0.105-0.304,0.296c0,0.331,0.21,0.565,0.481,0.565c0.219,0,0.309-0.124,0.309-0.299
			C1973.896,335.757,1973.661,335.538,1973.41,335.538"/>
		<path id="path3397" fill="#003B7A" d="M1974.16,335.279c-0.1-0.1-0.201-0.15-0.299-0.15c-0.042,0-0.084,0.003-0.117,0.012
			l0.025,0.135c0.033-0.012,0.069-0.017,0.105-0.017c0.058,0,0.127,0.035,0.184,0.095c0.065,0.07,0.094,0.145,0.094,0.266
			c0,0.221-0.047,0.494-0.122,0.763h0.167c0.055-0.215,0.094-0.474,0.094-0.651c0-0.03,0-0.07-0.012-0.104l0,0
			c0.132,0.232,0.246,0.469,0.376,0.788l0.138-0.041c-0.22-0.513-0.427-0.891-0.634-1.096"/>
		<path id="path3399" fill="#003B7A" d="M1975.3,336.279c-0.247,0-0.344-0.256-0.344-0.461c0-0.109,0.033-0.152,0.085-0.152
			c0.157,0,0.327,0.333,0.366,0.531l0.012,0.067C1975.384,336.271,1975.346,336.279,1975.3,336.279L1975.3,336.279z
			 M1975.431,335.554h-0.149c0.015,0.072,0.047,0.182,0.097,0.337v0.002c-0.06-0.129-0.185-0.356-0.387-0.356
			c-0.12,0-0.186,0.077-0.186,0.252c0,0.306,0.159,0.608,0.521,0.608c0.095,0,0.184-0.01,0.261-0.025
			c-0.088-0.465-0.119-0.62-0.154-0.818"/>
		<path id="path3401" fill="#003B7A" d="M1975.854,335.554h-0.147l0.233,1.219h0.147L1975.854,335.554L1975.854,335.554z"/>
		<path id="path3403" fill="#003B7A" d="M1976.986,336.562c-0.054,0-0.102-0.002-0.149-0.003l-0.07-0.363
			c0.032-0.002,0.058-0.002,0.096-0.002c0.184,0,0.314,0.087,0.314,0.241C1977.177,336.51,1977.137,336.562,1976.986,336.562
			L1976.986,336.562z M1976.872,336.078c-0.043,0-0.1,0-0.126-0.002l-0.075-0.394c0.028-0.005,0.075-0.008,0.137-0.008
			c0.2,0,0.305,0.117,0.305,0.252C1977.113,336.026,1977.038,336.078,1976.872,336.078L1976.872,336.078z M1977.104,336.15v-0.002
			c0.107-0.024,0.169-0.11,0.169-0.209c0-0.21-0.174-0.391-0.49-0.391c-0.07,0-0.179,0.003-0.286,0.005l0.214,1.127
			c0.08,0.002,0.186,0.005,0.315,0.005c0.215,0,0.312-0.083,0.312-0.217C1977.338,336.298,1977.228,336.193,1977.104,336.15"/>
		<path id="path3405" fill="#003B7A" d="M1977.925,336.279c-0.248,0-0.344-0.256-0.344-0.461c0-0.109,0.033-0.152,0.085-0.152
			c0.157,0,0.328,0.333,0.366,0.531l0.012,0.067C1978.01,336.271,1977.971,336.279,1977.925,336.279L1977.925,336.279z
			 M1978.057,335.554h-0.149c0.015,0.072,0.047,0.182,0.097,0.337v0.002c-0.06-0.129-0.185-0.356-0.388-0.356
			c-0.12,0-0.185,0.077-0.185,0.252c0,0.306,0.159,0.608,0.521,0.608c0.095,0,0.184-0.01,0.261-0.025
			c-0.088-0.465-0.119-0.62-0.154-0.818"/>
		<path id="path3407" fill="#003B7A" d="M1978.995,335.554h-0.147l0.102,0.531c0.025,0.13,0,0.187-0.073,0.187
			c-0.154,0-0.324-0.326-0.362-0.531l-0.035-0.187h-0.147l0.084,0.433c0.01,0.038,0.067,0.361,0.073,0.397h0.146
			c-0.01-0.055-0.034-0.15-0.092-0.327l0,0c0.079,0.176,0.21,0.344,0.384,0.344c0.154,0,0.205-0.109,0.174-0.282l-0.109-0.564
			H1978.995z"/>
		<path id="path3409" fill="#003B7A" d="M1979.653,336.008l0.251-0.454h-0.18l-0.22,0.439l-0.083-0.439h-0.147l0.232,1.219h0.147
			l-0.142-0.743l0.389,0.395l0.109-0.085L1979.653,336.008L1979.653,336.008z"/>
		<path id="path3411" fill="#003B7A" d="M1980.853,336.272c-0.182,0-0.304-0.204-0.304-0.413c0-0.124,0.05-0.192,0.176-0.192
			c0.162,0,0.303,0.174,0.303,0.416C1981.027,336.205,1980.972,336.272,1980.853,336.272z M1980.699,335.538
			c-0.209,0-0.304,0.105-0.304,0.296c0,0.331,0.21,0.565,0.481,0.565c0.218,0,0.308-0.124,0.308-0.299
			C1981.184,335.757,1980.949,335.538,1980.699,335.538"/>
		<path id="path3413" fill="#003B7A" d="M1981.998,336.644c-0.037,0.01-0.082,0.016-0.117,0.016c-0.12,0-0.187-0.065-0.214-0.22
			l-0.01-0.056h0.226l-0.025-0.117h-0.224l-0.144-0.755c-0.052-0.272-0.179-0.383-0.381-0.383c-0.048,0-0.099,0.005-0.143,0.015
			l0.037,0.127c0.038-0.012,0.083-0.016,0.117-0.016c0.119,0,0.185,0.06,0.222,0.254l0.145,0.758h-0.169l0.025,0.117h0.166
			l0.012,0.058c0.04,0.227,0.16,0.341,0.376,0.341c0.047,0,0.092-0.005,0.139-0.015L1981.998,336.644L1981.998,336.644z"/>
		<path id="path3415" fill="#003B7A" d="M1982.913,336.543c-0.055,0.02-0.115,0.027-0.157,0.027c-0.167,0-0.242-0.095-0.242-0.185
			c0-0.204,0.344-0.211,0.344-0.478c0-0.209-0.184-0.371-0.446-0.371c-0.06,0-0.13,0.007-0.185,0.025l0.028,0.147
			c0.047-0.02,0.114-0.037,0.17-0.037c0.174,0,0.272,0.085,0.272,0.21c0,0.195-0.342,0.197-0.342,0.468
			c0,0.184,0.145,0.347,0.416,0.347c0.057,0,0.107-0.004,0.171-0.017L1982.913,336.543L1982.913,336.543z"/>
		<path id="path3417" fill="#003B7A" d="M1983.628,336.242c-0.045,0.02-0.094,0.032-0.152,0.032c-0.21,0-0.309-0.237-0.309-0.426
			c0-0.087,0.028-0.176,0.174-0.176c0.065,0,0.132,0.015,0.182,0.039v-0.127c-0.06-0.023-0.14-0.043-0.224-0.043
			c-0.215,0-0.289,0.117-0.289,0.274c0,0.317,0.179,0.583,0.476,0.583c0.068,0,0.124-0.01,0.176-0.025L1983.628,336.242
			L1983.628,336.242z"/>
		<path id="path3419" fill="#003B7A" d="M1984.155,336.272c-0.182,0-0.304-0.204-0.304-0.413c0-0.124,0.05-0.192,0.176-0.192
			c0.162,0,0.304,0.174,0.304,0.416C1984.33,336.205,1984.275,336.272,1984.155,336.272z M1984.001,335.538
			c-0.209,0-0.304,0.105-0.304,0.296c0,0.331,0.211,0.565,0.481,0.565c0.219,0,0.309-0.124,0.309-0.299
			C1984.487,335.757,1984.251,335.538,1984.001,335.538"/>
		<path id="path3421" fill="#003B7A" d="M1985.139,336.267h-0.225l-0.082-0.434c-0.024-0.128-0.01-0.164,0.075-0.164
			c0.047,0,0.081,0.005,0.115,0.013l-0.01-0.125c-0.049-0.01-0.106-0.017-0.155-0.017c-0.17,0-0.214,0.08-0.179,0.269l0.089,0.457
			h-0.169l0.023,0.117h0.167l0.052,0.268l0.155,0.035l-0.057-0.303h0.224L1985.139,336.267L1985.139,336.267z"/>
		<path id="path3423" fill="#003B7A" d="M1985.353,335.554h-0.147l0.232,1.219h0.147L1985.353,335.554z"/>
		<path id="path3425" fill="#003B7A" d="M1986.125,336.279c-0.247,0-0.344-0.256-0.344-0.461c0-0.109,0.033-0.152,0.085-0.152
			c0.157,0,0.328,0.333,0.366,0.531l0.012,0.067C1986.211,336.271,1986.172,336.279,1986.125,336.279L1986.125,336.279z
			 M1986.257,335.554h-0.148c0.015,0.072,0.047,0.182,0.097,0.337v0.002c-0.06-0.129-0.186-0.356-0.388-0.356
			c-0.12,0-0.185,0.077-0.185,0.252c0,0.306,0.159,0.608,0.521,0.608c0.095,0,0.184-0.01,0.261-0.025
			c-0.089-0.465-0.119-0.62-0.154-0.818"/>
		<path id="path3427" fill="#003B7A" d="M1987.196,335.554h-0.147l0.102,0.531c0.025,0.13,0,0.187-0.074,0.187
			c-0.153,0-0.324-0.326-0.362-0.531l-0.035-0.187h-0.147l0.083,0.433c0.01,0.038,0.067,0.361,0.074,0.397h0.145
			c-0.01-0.055-0.034-0.15-0.092-0.327l0,0c0.079,0.176,0.211,0.344,0.384,0.344c0.154,0,0.206-0.109,0.174-0.282l-0.108-0.564
			H1987.196z"/>
		<path id="path3429" fill="#003B7A" d="M1987.96,336.279c-0.247,0-0.344-0.256-0.344-0.461c0-0.109,0.033-0.152,0.085-0.152
			c0.157,0,0.328,0.333,0.366,0.531l0.012,0.067C1988.046,336.271,1988.007,336.279,1987.96,336.279L1987.96,336.279z
			 M1988.148,335.854c-0.01-0.029-0.05-0.27-0.055-0.301h-0.147c0.013,0.072,0.045,0.182,0.095,0.337v0.002
			c-0.06-0.129-0.185-0.356-0.387-0.356c-0.12,0-0.186,0.077-0.186,0.252c0,0.306,0.159,0.608,0.521,0.608
			c0.042,0,0.075-0.003,0.117-0.01l0.072,0.386h0.149l-0.176-0.918H1988.148z"/>
	</g>
</g>
</svg>
